<svg xmlns="http://www.w3.org/2000/svg" xmlns:xlink="http://www.w3.org/1999/xlink" width="500" zoomAndPan="magnify" viewBox="0 0 375 374.999991" height="500" preserveAspectRatio="xMidYMid meet" version="1.0"><defs><g/><clipPath id="838a25460e"><path d="M 23.359375 91.886719 L 351.875 91.886719 L 351.875 362.304688 L 23.359375 362.304688 Z M 23.359375 91.886719 " clip-rule="nonzero"/></clipPath><clipPath id="b5998c651b"><path d="M 35.359375 91.886719 L 339.785156 91.886719 C 346.414062 91.886719 351.785156 97.257812 351.785156 103.886719 L 351.785156 350.304688 C 351.785156 356.929688 346.414062 362.304688 339.785156 362.304688 L 35.359375 362.304688 C 28.730469 362.304688 23.359375 356.929688 23.359375 350.304688 L 23.359375 103.886719 C 23.359375 97.257812 28.730469 91.886719 35.359375 91.886719 Z M 35.359375 91.886719 " clip-rule="nonzero"/></clipPath><clipPath id="f35ff71f9d"><path d="M 107.316406 121.234375 L 267.816406 121.234375 L 267.816406 201.484375 L 107.316406 201.484375 Z M 107.316406 121.234375 " clip-rule="nonzero"/></clipPath><clipPath id="4d349ffaec"><path d="M 107.328125 12.695312 L 267.828125 12.695312 L 267.828125 92.945312 L 107.328125 92.945312 Z M 107.328125 12.695312 " clip-rule="nonzero"/></clipPath></defs><g clip-path="url(#838a25460e)"><g clip-path="url(#b5998c651b)"><path fill="#e5ddc8" d="M 23.359375 91.886719 L 351.875 91.886719 L 351.875 362.304688 L 23.359375 362.304688 Z M 23.359375 91.886719 " fill-opacity="1" fill-rule="nonzero"/></g></g><g clip-path="url(#f35ff71f9d)"><path fill="#ffffff" d="M 243.898438 121.234375 C 243.898438 152.277344 218.683594 177.492188 187.640625 177.492188 C 156.597656 177.492188 131.382812 152.277344 131.382812 121.234375 L 107.390625 121.234375 C 107.390625 165.5625 143.3125 201.484375 187.640625 201.484375 C 231.96875 201.484375 267.753906 165.5625 267.753906 121.234375 Z M 243.898438 121.234375 " fill-opacity="1" fill-rule="nonzero"/></g><g clip-path="url(#4d349ffaec)"><path fill="#002855" d="M 131.25 92.945312 C 131.25 61.902344 156.460938 36.691406 187.503906 36.691406 C 218.546875 36.691406 243.761719 61.902344 243.761719 92.945312 L 267.753906 92.945312 C 267.753906 48.617188 231.832031 12.695312 187.503906 12.695312 C 143.175781 12.695312 107.390625 48.617188 107.390625 92.945312 Z M 131.25 92.945312 " fill-opacity="1" fill-rule="nonzero"/></g><g fill="#002855" fill-opacity="1"><g transform="translate(31.271057, 288.763462)"><g><path d="M 54.15625 -44.359375 L 54.15625 0 L 43.34375 0 L 43.34375 -26.609375 L 33.421875 0 L 24.703125 0 L 14.71875 -26.671875 L 14.71875 0 L 3.921875 0 L 3.921875 -44.359375 L 16.6875 -44.359375 L 29.125 -13.65625 L 41.453125 -44.359375 Z M 54.15625 -44.359375 "/></g></g></g><g fill="#002855" fill-opacity="1"><g transform="translate(87.375873, 288.763462)"><g><path d="M 37.15625 -18.203125 C 37.15625 -17.191406 37.09375 -16.132812 36.96875 -15.03125 L 12.515625 -15.03125 C 12.679688 -12.84375 13.382812 -11.171875 14.625 -10.015625 C 15.863281 -8.859375 17.390625 -8.28125 19.203125 -8.28125 C 21.898438 -8.28125 23.773438 -9.414062 24.828125 -11.6875 L 36.328125 -11.6875 C 35.742188 -9.375 34.679688 -7.289062 33.140625 -5.4375 C 31.597656 -3.582031 29.671875 -2.128906 27.359375 -1.078125 C 25.046875 -0.0234375 22.457031 0.5 19.59375 0.5 C 16.132812 0.5 13.054688 -0.234375 10.359375 -1.703125 C 7.660156 -3.179688 5.550781 -5.285156 4.03125 -8.015625 C 2.519531 -10.753906 1.765625 -13.957031 1.765625 -17.625 C 1.765625 -21.289062 2.507812 -24.492188 4 -27.234375 C 5.5 -29.972656 7.597656 -32.078125 10.296875 -33.546875 C 12.992188 -35.023438 16.09375 -35.765625 19.59375 -35.765625 C 23 -35.765625 26.03125 -35.046875 28.6875 -33.609375 C 31.34375 -32.179688 33.414062 -30.140625 34.90625 -27.484375 C 36.40625 -24.828125 37.15625 -21.734375 37.15625 -18.203125 Z M 26.09375 -21.046875 C 26.09375 -22.898438 25.460938 -24.375 24.203125 -25.46875 C 22.941406 -26.5625 21.363281 -27.109375 19.46875 -27.109375 C 17.65625 -27.109375 16.125 -26.582031 14.875 -25.53125 C 13.632812 -24.476562 12.867188 -22.984375 12.578125 -21.046875 Z M 26.09375 -21.046875 "/></g></g></g><g fill="#002855" fill-opacity="1"><g transform="translate(124.399888, 288.763462)"><g><path d="M 14.71875 -29.375 C 15.988281 -31.3125 17.570312 -32.835938 19.46875 -33.953125 C 21.363281 -35.078125 23.46875 -35.640625 25.78125 -35.640625 L 25.78125 -24.203125 L 22.8125 -24.203125 C 20.113281 -24.203125 18.085938 -23.617188 16.734375 -22.453125 C 15.390625 -21.296875 14.71875 -19.265625 14.71875 -16.359375 L 14.71875 0 L 3.921875 0 L 3.921875 -35.265625 L 14.71875 -35.265625 Z M 14.71875 -29.375 "/></g></g></g><g fill="#002855" fill-opacity="1"><g transform="translate(149.545771, 288.763462)"><g><path d="M 1.765625 -17.625 C 1.765625 -21.289062 2.507812 -24.492188 4 -27.234375 C 5.5 -29.972656 7.585938 -32.078125 10.265625 -33.546875 C 12.941406 -35.023438 16.007812 -35.765625 19.46875 -35.765625 C 23.882812 -35.765625 27.578125 -34.601562 30.546875 -32.28125 C 33.515625 -29.96875 35.460938 -26.707031 36.390625 -22.5 L 24.890625 -22.5 C 23.921875 -25.1875 22.046875 -26.53125 19.265625 -26.53125 C 17.285156 -26.53125 15.707031 -25.757812 14.53125 -24.21875 C 13.351562 -22.6875 12.765625 -20.488281 12.765625 -17.625 C 12.765625 -14.757812 13.351562 -12.554688 14.53125 -11.015625 C 15.707031 -9.484375 17.285156 -8.71875 19.265625 -8.71875 C 22.046875 -8.71875 23.921875 -10.066406 24.890625 -12.765625 L 36.390625 -12.765625 C 35.460938 -8.640625 33.503906 -5.394531 30.515625 -3.03125 C 27.523438 -0.675781 23.84375 0.5 19.46875 0.5 C 16.007812 0.5 12.941406 -0.234375 10.265625 -1.703125 C 7.585938 -3.179688 5.5 -5.285156 4 -8.015625 C 2.507812 -10.753906 1.765625 -13.957031 1.765625 -17.625 Z M 1.765625 -17.625 "/></g></g></g><g fill="#002855" fill-opacity="1"><g transform="translate(185.874789, 288.763462)"><g><path d="M 1.765625 -17.6875 C 1.765625 -21.3125 2.445312 -24.492188 3.8125 -27.234375 C 5.1875 -29.972656 7.050781 -32.078125 9.40625 -33.546875 C 11.769531 -35.023438 14.40625 -35.765625 17.3125 -35.765625 C 19.800781 -35.765625 21.984375 -35.257812 23.859375 -34.25 C 25.734375 -33.238281 27.175781 -31.910156 28.1875 -30.265625 L 28.1875 -35.265625 L 38.984375 -35.265625 L 38.984375 0 L 28.1875 0 L 28.1875 -4.984375 C 27.132812 -3.347656 25.671875 -2.023438 23.796875 -1.015625 C 21.921875 -0.00390625 19.738281 0.5 17.25 0.5 C 14.382812 0.5 11.769531 -0.242188 9.40625 -1.734375 C 7.050781 -3.234375 5.1875 -5.363281 3.8125 -8.125 C 2.445312 -10.882812 1.765625 -14.070312 1.765625 -17.6875 Z M 28.1875 -17.625 C 28.1875 -20.320312 27.4375 -22.445312 25.9375 -24 C 24.445312 -25.5625 22.625 -26.34375 20.46875 -26.34375 C 18.320312 -26.34375 16.5 -25.570312 15 -24.03125 C 13.507812 -22.5 12.765625 -20.382812 12.765625 -17.6875 C 12.765625 -15 13.507812 -12.863281 15 -11.28125 C 16.5 -9.695312 18.320312 -8.90625 20.46875 -8.90625 C 22.625 -8.90625 24.445312 -9.679688 25.9375 -11.234375 C 27.4375 -12.796875 28.1875 -14.925781 28.1875 -17.625 Z M 28.1875 -17.625 "/></g></g></g><g fill="#ef3340" fill-opacity="1"><g transform="translate(228.803706, 288.763462)"><g><path d="M 31.96875 -44.046875 L 31.96875 -39.359375 L 19.96875 -39.359375 L 19.96875 0 L 14.21875 0 L 14.21875 -39.359375 L 2.140625 -39.359375 L 2.140625 -44.046875 Z M 31.96875 -44.046875 "/></g></g></g><g fill="#ef3340" fill-opacity="1"><g transform="translate(261.721037, 288.763462)"><g><path d="M 10.609375 -39.359375 L 10.609375 -24.640625 L 26.671875 -24.640625 L 26.671875 -19.90625 L 10.609375 -19.90625 L 10.609375 -4.734375 L 28.5625 -4.734375 L 28.5625 0 L 4.859375 0 L 4.859375 -44.109375 L 28.5625 -44.109375 L 28.5625 -39.359375 Z M 10.609375 -39.359375 "/></g></g></g><g fill="#ef3340" fill-opacity="1"><g transform="translate(292.86928, 288.763462)"><g><path d="M 2.71875 -22.046875 C 2.71875 -26.347656 3.6875 -30.210938 5.625 -33.640625 C 7.5625 -37.078125 10.203125 -39.765625 13.546875 -41.703125 C 16.898438 -43.640625 20.617188 -44.609375 24.703125 -44.609375 C 29.503906 -44.609375 33.695312 -43.445312 37.28125 -41.125 C 40.863281 -38.8125 43.472656 -35.53125 45.109375 -31.28125 L 38.234375 -31.28125 C 37.003906 -33.9375 35.242188 -35.976562 32.953125 -37.40625 C 30.660156 -38.84375 27.910156 -39.5625 24.703125 -39.5625 C 21.628906 -39.5625 18.867188 -38.84375 16.421875 -37.40625 C 13.984375 -35.976562 12.066406 -33.945312 10.671875 -31.3125 C 9.285156 -28.675781 8.59375 -25.585938 8.59375 -22.046875 C 8.59375 -18.554688 9.285156 -15.492188 10.671875 -12.859375 C 12.066406 -10.222656 13.984375 -8.1875 16.421875 -6.75 C 18.867188 -5.320312 21.628906 -4.609375 24.703125 -4.609375 C 27.910156 -4.609375 30.660156 -5.3125 32.953125 -6.71875 C 35.242188 -8.132812 37.003906 -10.171875 38.234375 -12.828125 L 45.109375 -12.828125 C 43.472656 -8.617188 40.863281 -5.363281 37.28125 -3.0625 C 33.695312 -0.769531 29.503906 0.375 24.703125 0.375 C 20.617188 0.375 16.898438 -0.582031 13.546875 -2.5 C 10.203125 -4.414062 7.5625 -7.078125 5.625 -10.484375 C 3.6875 -13.898438 2.71875 -17.753906 2.71875 -22.046875 Z M 2.71875 -22.046875 "/></g></g></g></svg>